<?xml version="1.0" encoding="UTF-8" standalone="no"?>
<svg
   xmlns:dc="http://purl.org/dc/elements/1.1/"
   xmlns:cc="http://creativecommons.org/ns#"
   xmlns:rdf="http://www.w3.org/1999/02/22-rdf-syntax-ns#"
   xmlns:svg="http://www.w3.org/2000/svg"
   xmlns="http://www.w3.org/2000/svg"
   xmlns:sodipodi="http://sodipodi.sourceforge.net/DTD/sodipodi-0.dtd"
   xmlns:inkscape="http://www.inkscape.org/namespaces/inkscape"
   width="499.99991"
   height="500.00009"
   viewBox="0 0 499.9999 500.00009"
   version="1.1"
   id="svg26"
   sodipodi:docname="logo-only.svg"
   inkscape:version="0.92.3 (2405546, 2018-03-11)"
   inkscape:export-filename="/home/etch/Projects/gnc-web/images/logo-only.svg.png"
   inkscape:export-xdpi="96"
   inkscape:export-ydpi="96">
  <metadata
     id="metadata32">
    <rdf:RDF>
      <cc:Work
         rdf:about="">
        <dc:format>image/svg+xml</dc:format>
        <dc:type
           rdf:resource="http://purl.org/dc/dcmitype/StillImage" />
        <dc:title></dc:title>
      </cc:Work>
    </rdf:RDF>
  </metadata>
  <defs
     id="defs30" />
  <sodipodi:namedview
     pagecolor="#ffffff"
     bordercolor="#666666"
     borderopacity="1"
     objecttolerance="10"
     gridtolerance="10"
     guidetolerance="10"
     inkscape:pageopacity="0"
     inkscape:pageshadow="2"
     inkscape:window-width="2991"
     inkscape:window-height="1943"
     id="namedview28"
     showgrid="false"
     inkscape:zoom="1.8539823"
     inkscape:cx="26.2154"
     inkscape:cy="256.06238"
     inkscape:window-x="382"
     inkscape:window-y="68"
     inkscape:window-maximized="0"
     inkscape:current-layer="svg26" />
  <g
     transform="matrix(21.576698,0,0,21.576797,-6.2286992,-21.055286)"
     style="fill:none"
     id="Asset 1"
     inkscape:export-xdpi="95.999985"
     inkscape:export-ydpi="95.999985">
    <g
       id="Layer 1">
      <g
         id="Vector">
        <path
           d="m 21.0637,10.5318 c 0,2.083 -0.6177,4.1193 -1.775,5.8512 -1.1572,1.732 -2.8021,3.0819 -4.7265,3.879 -1.9244,0.7971 -4.042,1.0057 -6.08501,0.5993 C 6.43421,20.4549 4.55761,19.4519 3.08471,17.979 1.61181,16.5061 0.608744,14.6295 0.202371,12.5865 -0.204002,10.5435 0.00456329,8.42592 0.801693,6.50148 1.59882,4.57704 2.94872,2.93219 4.68067,1.77494 6.41262,0.617682 8.44884,0 10.5318,0"
           stroke-miterlimit="10"
           transform="translate(1.34335,2.03052)"
           id="path2"
           inkscape:connector-curvature="0"
           style="stroke:#2e5573;stroke-width:2.10938001;stroke-miterlimit:10" />
      </g>
      <g
         id="Vector_2">
        <path
           d="M 4.23714e-7,0 H 8.94903 v 9.19138"
           stroke-miterlimit="10"
           transform="translate(13.4581,2.03052)"
           id="path5"
           inkscape:connector-curvature="0"
           style="stroke:#6fcfc3;stroke-width:2.10938001;stroke-miterlimit:10" />
      </g>
      <g
         id="Vector_3">
        <path
           d="M 8.05886,0.070373 0.435144,4.43003 C 0.319765,4.49619 0.221179,4.58804 0.147033,4.69846 0.0728867,4.80888 0.0251737,4.9349 0.00759551,5.06673 -0.00998264,5.19857 0.0030464,5.33268 0.045672,5.45867 0.0882976,5.58466 0.159374,5.69913 0.253387,5.79321 L 3.07568,8.61803 C 3.16976,8.71204 3.28423,8.78312 3.41022,8.82574 3.53621,8.86837 3.67032,8.8814 3.80216,8.86382 3.93399,8.84624 4.06001,8.79853 4.17043,8.72438 4.28084,8.65024 4.3727,8.55165 4.43886,8.43627 L 8.79852,0.810025 C 8.85695,0.706742 8.87993,0.587153 8.86393,0.469567 8.84793,0.351981 8.79383,0.24288 8.70992,0.158968 8.62601,0.0750562 8.51691,0.0209582 8.39932,0.00495732 8.28174,-0.0110436 8.16215,0.0119342 8.05886,0.070373 Z"
           transform="translate(8.13574,7.78406)"
           id="path8"
           inkscape:connector-curvature="0"
           style="fill:#6fcfc3;fill-opacity:1" />
      </g>
    </g>
  </g>
</svg>
